<?xml version="1.0" encoding="utf-8"?>
<!-- Generator: Adobe Illustrator 23.1.0, SVG Export Plug-In . SVG Version: 6.00 Build 0)  -->
<svg version="1.1" id="Layer_1" xmlns="http://www.w3.org/2000/svg" xmlns:xlink="http://www.w3.org/1999/xlink" x="0px" y="0px"
	 viewBox="0 0 1200 350" style="enable-background:new 0 0 1200 350;" xml:space="preserve">
<style type="text/css">
	.st0{fill:#9DC3E2;}
	.st1{fill:#BCD9ED;}
	.st2{fill:#D0E6A5;}
	.st3{fill:#E3F4BA;}
	.st4{fill:#3B8F93;}
	.st5{fill:#EEEEFF;}
	.st6{fill:#9DD2D8;}
	.st7{fill:#CEAFDB;}
	.st8{fill:#DFBEED;}
	.st9{fill:#5E93AD;}
	.st10{fill:#71AEC6;}
	.st11{fill:none;stroke:#CCCCCC;stroke-width:2;stroke-miterlimit:10;}
	.st12{fill:none;stroke:#CCCCCC;stroke-width:2;stroke-miterlimit:10;stroke-dasharray:11.6379,11.6379;}
</style>
<g>
	<path class="st0" d="M308.36,299.52V48.88H92.27v253.23h0.12c0,0.15-0.01,0.31-0.01,0.46c0,26.19,48.4,47.42,108.11,47.42
		s108.11-21.23,108.11-47.42C308.59,301.55,308.51,300.53,308.36,299.52z"/>
	<g>
		<ellipse class="st1" cx="200.48" cy="48.42" rx="108.11" ry="47.42"/>
	</g>
</g>
<g>
	<path class="st0" d="M758.28,299.52v-94.93l-216.09,1.79v97.52l0.12-1.79c0,0.15-0.01,0.31-0.01,0.46
		c0,26.19,48.4,47.42,108.11,47.42c59.71,0,108.11-21.23,108.11-47.42C758.51,301.55,758.42,300.53,758.28,299.52z"/>
	<g>
		<ellipse class="st1" cx="650.39" cy="206.82" rx="108.11" ry="47.42"/>
	</g>
</g>
<g>
	<path class="st2" d="M758.28,173.34v-50.18H542.18v52.78h0.12c0,0.15-0.01,0.31-0.01,0.46c0,26.19,48.4,47.42,108.11,47.42
		c59.71,0,108.11-21.23,108.11-47.42C758.51,175.37,758.42,174.35,758.28,173.34z"/>
	<g>
		<ellipse class="st3" cx="650.39" cy="120.91" rx="108.11" ry="47.42"/>
	</g>
</g>
<path class="st4" d="M758.28,85.64V48.88H542.18v41.15l0.12-1.79c0,0.15-0.01,0.31-0.01,0.46c0,26.19,48.4,47.42,108.11,47.42
	c59.71,0,108.11-21.23,108.11-47.42C758.51,87.67,758.42,86.66,758.28,85.64z"/>
<g>
	<ellipse class="st5" cx="650.39" cy="48.42" rx="108.11" ry="47.42"/>
</g>
<g>
	<ellipse class="st6" cx="650.39" cy="48.42" rx="108.11" ry="47.42"/>
</g>
<path class="st0" d="M1058.72,299.52V183.55H842.63v118.56h0.12c0,0.15-0.01,0.31-0.01,0.46c0,26.19,48.4,47.42,108.11,47.42
	c59.71,0,108.11-21.23,108.11-47.42C1058.95,301.55,1058.87,300.53,1058.72,299.52z"/>
<g>
	<ellipse class="st1" cx="950.84" cy="183.55" rx="108.11" ry="47.42"/>
</g>
<path class="st7" d="M1058.72,143.81V48.43H842.63v97.98h0.12c0,0.15-0.01,0.31-0.01,0.46c0,26.19,48.4,47.42,108.11,47.42
	c59.71,0,108.11-21.23,108.11-47.42C1058.95,145.84,1058.87,144.82,1058.72,143.81z"/>
<g>
	<ellipse class="st8" cx="950.84" cy="48.42" rx="108.11" ry="47.42"/>
</g>
<path class="st9" d="M542.18,90.03l0.12-1.79c0,0.15-0.01,0.31-0.01,0.46c0,12.42,10.89,23.73,28.71,32.18V80.64l-24.14-31.76h-4.68
	V90.03z"/>
<path class="st9" d="M650,1c-26.74,0.04-51.18,4.34-70,11.43l70,35.99V1z"/>
<path class="st10" d="M542.28,48.42c0,12.34,10.75,23.58,28.36,32.02L650,48.43l-69.22-36.28
	C557.24,20.84,542.28,33.87,542.28,48.42z"/>
<g>
	<g>
		<line class="st11" x1="399.5" y1="1" x2="399.5" y2="7"/>
		<line class="st12" x1="399.5" y1="18.64" x2="399.5" y2="338.68"/>
		<line class="st11" x1="399.5" y1="344.5" x2="399.5" y2="350.5"/>
	</g>
</g>
</svg>
